<svg xmlns="http://www.w3.org/2000/svg" viewBox="0 0 24 24" width="24" height="24" fill="#1db954">
  <path d="M12 2a10 10 0 1 0 0 20 10 10 0 0 0 0-20Zm4.6 14.4a.62.62 0 0 1-.86.21c-2.35-1.44-5.3-1.76-8.8-.96a.62.62 0 1 1-.28-1.21c3.83-.88 7.1-.5 9.73 1.1a.62.62 0 0 1 .21.86Zm1.23-2.74a.78.78 0 0 1-1.07.26c-2.69-1.65-6.79-2.13-9.97-1.17a.78.78 0 1 1-.45-1.49c3.63-1.1 8.15-.56 11.24 1.33.37.23.49.71.25 1.07Zm.1-2.85C14.83 8.96 9.35 8.78 6.28 9.71a.93.93 0 1 1-.54-1.78c3.53-1.07 9.58-.86 13.36 1.38a.93.93 0 1 1-.95 1.6Z" />
</svg>
